<?xml version="1.0" encoding="UTF-8" standalone="no"?>
<!-- Created with Inkscape (http://www.inkscape.org/) -->

<svg
   width="0.5905512in"
   height="0.55688739in"
   viewBox="0 0 15.000001 14.144939"
   version="1.1"
   id="svg1700"
   xmlns="http://www.w3.org/2000/svg">
  <defs
     id="defs1697" />
  <g
     id="layer1"
     transform="translate(-18.669058,-44.120459)">
    <path
       id="path73257-7-2-9-159"
       style="vector-effect:none;fill:#126d82;fill-opacity:1;fill-rule:evenodd;stroke:none;stroke-width:1.78648;stroke-linecap:butt;stroke-linejoin:miter;stroke-miterlimit:4;stroke-dasharray:none;stroke-dashoffset:0;stroke-opacity:1"
       d="m 28.942408,44.120459 v 0.369125 c 0.387307,0.340723 0.669703,0.784587 0.814219,1.279779 h -7.071526 c -1.256081,0 -2.289679,1.033612 -2.289679,2.289659 v 1.576489 c 0,1.256067 1.033598,2.289679 2.289679,2.289679 h 2.291074 1.890505 2.292161 c 0.489614,0 0.859771,0.370136 0.859771,0.859771 v 1.578259 c 0,0.489635 -0.370157,0.859778 -0.859771,0.859778 h -5.960618 c -0.305787,-0.926821 -1.183651,-1.603694 -2.207352,-1.603694 -1.274346,0 -2.321813,1.048862 -2.321813,2.323228 0,1.274352 1.047467,2.322866 2.321813,2.322866 1.027535,0 1.908257,-0.681775 2.2109,-1.613927 h 5.95707 c 1.25606,0 2.288243,-1.032198 2.288243,-2.288251 v -1.578259 c 0,-1.256047 -1.032183,-2.289679 -2.288243,-2.289679 H 26.86668 24.976175 22.685101 c -0.489628,0 -0.860837,-0.370102 -0.860837,-0.859771 v -1.576489 c 0,-0.489635 0.371209,-0.861186 0.860837,-0.861186 h 7.095184 c -0.134564,0.531447 -0.426632,1.009811 -0.837877,1.372325 v 0.276941 l 4.72665,-2.363502 z m -7.951537,10.928732 c 0.501952,0 0.894393,0.391375 0.894393,0.893341 0,0.501953 -0.392441,0.894393 -0.894393,0.894393 -0.501966,0 -0.893341,-0.39244 -0.893341,-0.894393 0,-0.501966 0.391375,-0.893341 0.893341,-0.893341 z" />
  </g>
</svg>
